<svg width="30" height="30" viewBox="0 0 30 30" fill="none" xmlns="http://www.w3.org/2000/svg">
<path fill-rule="evenodd" clip-rule="evenodd" d="M14.2929 5.70711C14.6834 5.31658 15.3166 5.31658 15.7071 5.70711L16.056 6.05603C16.4463 6.4463 16.4466 7.07898 16.0567 7.46961L9.7875 13.75H24C24.5523 13.75 25 14.1977 25 14.75V15.25C25 15.8023 24.5523 16.25 24 16.25H9.7875L16.0567 22.5304C16.4466 22.921 16.4463 23.5537 16.056 23.944L15.7071 24.2929C15.3166 24.6834 14.6834 24.6834 14.2929 24.2929L5 15L14.2929 5.70711Z" fill="black"/>
<mask id="mask0_21_9403" style="mask-type:alpha" maskUnits="userSpaceOnUse" x="5" y="5" width="20" height="20">
<path fill-rule="evenodd" clip-rule="evenodd" d="M14.2929 5.70711C14.6834 5.31658 15.3166 5.31658 15.7071 5.70711L16.056 6.05603C16.4463 6.4463 16.4466 7.07898 16.0567 7.46961L9.7875 13.75H24C24.5523 13.75 25 14.1977 25 14.75V15.25C25 15.8023 24.5523 16.25 24 16.25H9.7875L16.0567 22.5304C16.4466 22.921 16.4463 23.5537 16.056 23.944L15.7071 24.2929C15.3166 24.6834 14.6834 24.6834 14.2929 24.2929L5 15L14.2929 5.70711Z" fill="white"/>
</mask>
<g mask="url(#mask0_21_9403)">
<rect width="30" height="30" fill="black"/>
</g>
</svg>
