<svg width="248" height="40" viewBox="0 0 248 40" fill="none" xmlns="http://www.w3.org/2000/svg">
<rect width="248" height="40" rx="4" fill="#D8D8D8"/>
<mask id="mask0_21_12552" style="mask-type:luminance" maskUnits="userSpaceOnUse" x="0" y="0" width="248" height="40">
<rect width="248" height="40" rx="4" fill="white"/>
</mask>
<g mask="url(#mask0_21_12552)">
<rect width="248" height="40" fill="#1887FB"/>
</g>
<path d="M30.8834 16.798V18.66H27.9574V26.5H25.7734V18.66H22.8474V16.798H30.8834ZM35.129 16.686C36.585 16.686 37.7003 16.9473 38.475 17.47C39.2497 17.9833 39.637 18.786 39.637 19.878C39.637 20.5593 39.4783 21.1147 39.161 21.544C38.853 21.964 38.405 22.2953 37.817 22.538C38.013 22.7807 38.2183 23.0607 38.433 23.378C38.6477 23.686 38.8577 24.0127 39.063 24.358C39.2777 24.694 39.483 25.0487 39.679 25.422C39.875 25.786 40.057 26.1453 40.225 26.5H37.775C37.5977 26.1827 37.4157 25.8607 37.229 25.534C37.0517 25.2073 36.865 24.89 36.669 24.582C36.4823 24.274 36.2957 23.9847 36.109 23.714C35.9223 23.434 35.7357 23.182 35.549 22.958H34.471V26.5H32.287V16.938C32.763 16.8447 33.253 16.7793 33.757 16.742C34.2703 16.7047 34.7277 16.686 35.129 16.686ZM35.255 18.548C35.0963 18.548 34.9517 18.5527 34.821 18.562C34.6997 18.5713 34.583 18.5807 34.471 18.59V21.222H35.087C35.9083 21.222 36.4963 21.1193 36.851 20.914C37.2057 20.7087 37.383 20.3587 37.383 19.864C37.383 19.388 37.201 19.052 36.837 18.856C36.4823 18.6507 35.955 18.548 35.255 18.548ZM47.8829 26.5L47.1549 24.12H43.5149L42.7869 26.5H40.5049L44.0329 16.462H46.6229L50.1649 26.5H47.8829ZM45.9229 20.018C45.8762 19.8593 45.8155 19.6587 45.7409 19.416C45.6662 19.1733 45.5915 18.926 45.5169 18.674C45.4422 18.422 45.3815 18.2027 45.3349 18.016C45.2882 18.2027 45.2229 18.436 45.1389 18.716C45.0642 18.9867 44.9895 19.248 44.9149 19.5C44.8495 19.7427 44.7982 19.9153 44.7609 20.018L44.0469 22.342H46.6509L45.9229 20.018ZM47.0289 13.984C47.0289 14.3293 46.9355 14.6187 46.7489 14.852C46.5622 15.076 46.2869 15.2347 45.9229 15.328L45.8529 15.818H44.6629L44.5089 14.81C44.8542 14.754 45.0875 14.67 45.2089 14.558C45.3302 14.4367 45.3909 14.292 45.3909 14.124C45.3909 13.9747 45.3442 13.8627 45.2509 13.788C45.1575 13.7133 45.0315 13.676 44.8729 13.676C44.6955 13.676 44.5275 13.69 44.3689 13.718C44.2195 13.746 44.0702 13.7833 43.9209 13.83V12.682C44.0515 12.6353 44.2289 12.598 44.4529 12.57C44.6769 12.542 44.9009 12.528 45.1249 12.528C45.7595 12.528 46.2355 12.654 46.5529 12.906C46.8702 13.158 47.0289 13.5173 47.0289 13.984ZM51.2909 16.798H53.4749V26.5H51.2909V16.798ZM65.5939 26.5C64.9685 25.3893 64.2919 24.2927 63.5639 23.21C62.8359 22.1273 62.0612 21.1053 61.2399 20.144V26.5H59.0839V16.798H60.8619C61.1699 17.106 61.5105 17.484 61.8839 17.932C62.2572 18.38 62.6352 18.8607 63.0179 19.374C63.4099 19.878 63.7972 20.4053 64.1799 20.956C64.5625 21.4973 64.9219 22.02 65.2579 22.524V16.798H67.4279V26.5H65.5939ZM74.3979 18.478C73.3806 18.478 72.6432 18.7627 72.1859 19.332C71.7379 19.892 71.5139 20.662 71.5139 21.642C71.5139 22.118 71.5699 22.552 71.6819 22.944C71.7939 23.3267 71.9619 23.658 72.1859 23.938C72.4099 24.218 72.6899 24.4373 73.0259 24.596C73.3619 24.7453 73.7539 24.82 74.2019 24.82C74.4446 24.82 74.6499 24.8153 74.8179 24.806C74.9952 24.7967 75.1492 24.778 75.2799 24.75V21.376H77.4639V26.178C77.2026 26.2807 76.7826 26.388 76.2039 26.5C75.6252 26.6213 74.9112 26.682 74.0619 26.682C73.3339 26.682 72.6712 26.57 72.0739 26.346C71.4859 26.122 70.9819 25.7953 70.5619 25.366C70.1419 24.9367 69.8152 24.4093 69.5819 23.784C69.3579 23.1587 69.2459 22.4447 69.2459 21.642C69.2459 20.83 69.3719 20.1113 69.6239 19.486C69.8759 18.8607 70.2212 18.3333 70.6599 17.904C71.0986 17.4653 71.6119 17.134 72.1999 16.91C72.7972 16.686 73.4319 16.574 74.1039 16.574C74.5612 16.574 74.9719 16.6067 75.3359 16.672C75.7092 16.728 76.0266 16.798 76.2879 16.882C76.5586 16.9567 76.7779 17.036 76.9459 17.12C77.1232 17.204 77.2492 17.2693 77.3239 17.316L76.6939 19.066C76.3952 18.9073 76.0499 18.772 75.6579 18.66C75.2752 18.5387 74.8552 18.478 74.3979 18.478ZM85.348 16.798H87.532V26.5H85.348V22.384H81.68V26.5H79.496V16.798H81.68V20.508H85.348V16.798ZM89.7772 16.798H91.9612V26.5H89.7772V16.798ZM100.101 26.5H94.3469V16.504H100.101V18.24H96.4609V20.438H99.8489V22.174H96.4609V24.75H100.101V26.5ZM97.3149 29.44C96.9976 29.44 96.7269 29.3653 96.5029 29.216C96.2882 29.0667 96.1809 28.8007 96.1809 28.418C96.1809 28.026 96.2882 27.7553 96.5029 27.606C96.7269 27.466 96.9976 27.396 97.3149 27.396C97.6229 27.396 97.8889 27.466 98.1129 27.606C98.3369 27.7553 98.4489 28.026 98.4489 28.418C98.4489 28.8007 98.3369 29.0667 98.1129 29.216C97.8889 29.3653 97.6229 29.44 97.3149 29.44ZM98.5329 13.424C98.6636 13.6293 98.8316 13.8627 99.0369 14.124C99.2516 14.376 99.4709 14.6233 99.6949 14.866C99.9189 15.1087 100.115 15.314 100.283 15.482V15.664H98.8969C98.6542 15.5147 98.3882 15.342 98.0989 15.146C97.8096 14.9407 97.5436 14.712 97.3009 14.46C97.0582 14.712 96.7969 14.936 96.5169 15.132C96.2369 15.328 95.9756 15.5053 95.7329 15.664H94.3469V15.482C94.5242 15.3047 94.7202 15.0993 94.9349 14.866C95.1589 14.6233 95.3736 14.376 95.5789 14.124C95.7936 13.8627 95.9662 13.6293 96.0969 13.424H98.5329ZM104.617 16.798C104.785 17.106 104.976 17.4887 105.191 17.946C105.415 18.394 105.644 18.884 105.877 19.416C106.12 19.9387 106.358 20.4753 106.591 21.026C106.824 21.5767 107.044 22.0947 107.249 22.58C107.454 22.0947 107.674 21.5767 107.907 21.026C108.14 20.4753 108.374 19.9387 108.607 19.416C108.85 18.884 109.078 18.394 109.293 17.946C109.517 17.4887 109.713 17.106 109.881 16.798H111.869C111.962 17.442 112.046 18.1653 112.121 18.968C112.205 19.7613 112.275 20.592 112.331 21.46C112.396 22.3187 112.452 23.182 112.499 24.05C112.555 24.918 112.602 25.7347 112.639 26.5H110.511C110.483 25.5573 110.446 24.5307 110.399 23.42C110.352 22.3093 110.282 21.1893 110.189 20.06C110.021 20.452 109.834 20.886 109.629 21.362C109.424 21.838 109.218 22.314 109.013 22.79C108.817 23.266 108.626 23.7233 108.439 24.162C108.252 24.5913 108.094 24.96 107.963 25.268H106.437C106.306 24.96 106.148 24.5913 105.961 24.162C105.774 23.7233 105.578 23.266 105.373 22.79C105.177 22.314 104.976 21.838 104.771 21.362C104.566 20.886 104.379 20.452 104.211 20.06C104.118 21.1893 104.048 22.3093 104.001 23.42C103.954 24.5307 103.917 25.5573 103.889 26.5H101.761C101.798 25.7347 101.84 24.918 101.887 24.05C101.943 23.182 101.999 22.3187 102.055 21.46C102.12 20.592 102.19 19.7613 102.265 18.968C102.349 18.1653 102.438 17.442 102.531 16.798H104.617ZM125.165 16.798V18.66H122.239V26.5H120.055V18.66H117.129V16.798H125.165ZM128.074 21.642C128.074 22.118 128.13 22.5473 128.242 22.93C128.363 23.3127 128.531 23.644 128.746 23.924C128.97 24.1947 129.241 24.4047 129.558 24.554C129.875 24.7033 130.239 24.778 130.65 24.778C131.051 24.778 131.411 24.7033 131.728 24.554C132.055 24.4047 132.325 24.1947 132.54 23.924C132.764 23.644 132.932 23.3127 133.044 22.93C133.165 22.5473 133.226 22.118 133.226 21.642C133.226 21.166 133.165 20.7367 133.044 20.354C132.932 19.962 132.764 19.6307 132.54 19.36C132.325 19.08 132.055 18.8653 131.728 18.716C131.411 18.5667 131.051 18.492 130.65 18.492C130.239 18.492 129.875 18.5713 129.558 18.73C129.241 18.8793 128.97 19.094 128.746 19.374C128.531 19.6447 128.363 19.976 128.242 20.368C128.13 20.7507 128.074 21.1753 128.074 21.642ZM135.48 21.642C135.48 22.4727 135.354 23.2053 135.102 23.84C134.859 24.4653 134.523 24.9927 134.094 25.422C133.665 25.842 133.151 26.1593 132.554 26.374C131.966 26.5887 131.331 26.696 130.65 26.696C129.987 26.696 129.362 26.5887 128.774 26.374C128.186 26.1593 127.673 25.842 127.234 25.422C126.795 24.9927 126.45 24.4653 126.198 23.84C125.946 23.2053 125.82 22.4727 125.82 21.642C125.82 20.8113 125.951 20.0833 126.212 19.458C126.473 18.8233 126.823 18.2913 127.262 17.862C127.71 17.4327 128.223 17.1107 128.802 16.896C129.39 16.6813 130.006 16.574 130.65 16.574C131.313 16.574 131.938 16.6813 132.526 16.896C133.114 17.1107 133.627 17.4327 134.066 17.862C134.505 18.2913 134.85 18.8233 135.102 19.458C135.354 20.0833 135.48 20.8113 135.48 21.642ZM143.441 26.5C143.339 26.164 143.222 25.8187 143.091 25.464C142.97 25.1093 142.849 24.7547 142.727 24.4H138.947C138.826 24.7547 138.7 25.1093 138.569 25.464C138.448 25.8187 138.336 26.164 138.233 26.5H135.965C136.329 25.4547 136.675 24.4887 137.001 23.602C137.328 22.7153 137.645 21.88 137.953 21.096C138.271 20.312 138.579 19.57 138.877 18.87C139.185 18.1607 139.503 17.47 139.829 16.798H141.915C142.233 17.47 142.545 18.1607 142.853 18.87C143.161 19.57 143.469 20.312 143.777 21.096C144.095 21.88 144.417 22.7153 144.743 23.602C145.07 24.4887 145.415 25.4547 145.779 26.5H143.441ZM140.823 18.996C140.777 19.136 140.707 19.3273 140.613 19.57C140.52 19.8127 140.413 20.0927 140.291 20.41C140.17 20.7273 140.035 21.0773 139.885 21.46C139.745 21.8427 139.601 22.244 139.451 22.664H142.209C142.06 22.244 141.915 21.8427 141.775 21.46C141.635 21.0773 141.5 20.7273 141.369 20.41C141.248 20.0927 141.141 19.8127 141.047 19.57C140.954 19.3273 140.879 19.136 140.823 18.996ZM140.417 13.074L142.405 15.342L141.453 16.196L139.143 14.25L140.417 13.074ZM153.545 26.5C152.92 25.3893 152.243 24.2927 151.515 23.21C150.787 22.1273 150.012 21.1053 149.191 20.144V26.5H147.035V16.798H148.813C149.121 17.106 149.462 17.484 149.835 17.932C150.208 18.38 150.586 18.8607 150.969 19.374C151.361 19.878 151.748 20.4053 152.131 20.956C152.514 21.4973 152.873 22.02 153.209 22.524V16.798H155.379V26.5H153.545ZM167.462 24.624V26.5H160.98V16.798H163.164V24.624H167.462ZM178.081 21.488C178.081 22.2627 177.983 22.9673 177.787 23.602C177.6 24.2273 177.311 24.7687 176.919 25.226C176.536 25.6833 176.042 26.0333 175.435 26.276C174.838 26.5187 174.133 26.64 173.321 26.64C172.509 26.64 171.8 26.5187 171.193 26.276C170.596 26.024 170.101 25.674 169.709 25.226C169.326 24.7687 169.037 24.2227 168.841 23.588C168.654 22.9533 168.561 22.2487 168.561 21.474C168.561 20.438 168.729 19.5373 169.065 18.772C169.41 18.0067 169.933 17.414 170.633 16.994C171.342 16.5647 172.243 16.35 173.335 16.35C174.418 16.35 175.309 16.5647 176.009 16.994C176.709 17.414 177.227 18.0113 177.563 18.786C177.908 19.5513 178.081 20.452 178.081 21.488ZM170.787 21.488C170.787 22.188 170.876 22.79 171.053 23.294C171.23 23.798 171.506 24.1853 171.879 24.456C172.252 24.7267 172.733 24.862 173.321 24.862C173.928 24.862 174.413 24.7267 174.777 24.456C175.15 24.1853 175.421 23.798 175.589 23.294C175.766 22.79 175.855 22.188 175.855 21.488C175.855 20.4333 175.659 19.6073 175.267 19.01C174.875 18.4127 174.231 18.114 173.335 18.114C172.738 18.114 172.252 18.2493 171.879 18.52C171.506 18.7907 171.23 19.178 171.053 19.682C170.876 20.186 170.787 20.788 170.787 21.488ZM173.321 29.44C173.004 29.44 172.733 29.3653 172.509 29.216C172.294 29.0667 172.187 28.8007 172.187 28.418C172.187 28.026 172.294 27.7553 172.509 27.606C172.733 27.466 173.004 27.396 173.321 27.396C173.629 27.396 173.895 27.466 174.119 27.606C174.343 27.7553 174.455 28.026 174.455 28.418C174.455 28.8007 174.343 29.0667 174.119 29.216C173.895 29.3653 173.629 29.44 173.321 29.44ZM174.553 13.424C174.684 13.6293 174.852 13.8627 175.057 14.124C175.272 14.376 175.491 14.6233 175.715 14.866C175.939 15.1087 176.135 15.314 176.303 15.482V15.664H174.917C174.674 15.5147 174.408 15.342 174.119 15.146C173.83 14.9407 173.564 14.712 173.321 14.46C173.078 14.712 172.817 14.936 172.537 15.132C172.257 15.328 171.996 15.5053 171.753 15.664H170.367V15.482C170.544 15.3047 170.74 15.0993 170.955 14.866C171.179 14.6233 171.394 14.376 171.599 14.124C171.814 13.8627 171.986 13.6293 172.117 13.424H174.553ZM190.571 16.798V18.66H187.645V26.5H185.461V18.66H182.535V16.798H190.571ZM194.816 16.686C196.272 16.686 197.388 16.9473 198.162 17.47C198.937 17.9833 199.324 18.786 199.324 19.878C199.324 20.5593 199.166 21.1147 198.848 21.544C198.54 21.964 198.092 22.2953 197.504 22.538C197.7 22.7807 197.906 23.0607 198.12 23.378C198.335 23.686 198.545 24.0127 198.75 24.358C198.965 24.694 199.17 25.0487 199.366 25.422C199.562 25.786 199.744 26.1453 199.912 26.5H197.462C197.285 26.1827 197.103 25.8607 196.916 25.534C196.739 25.2073 196.552 24.89 196.356 24.582C196.17 24.274 195.983 23.9847 195.796 23.714C195.61 23.434 195.423 23.182 195.236 22.958H194.158V26.5H191.974V16.938C192.45 16.8447 192.94 16.7793 193.444 16.742C193.958 16.7047 194.415 16.686 194.816 16.686ZM194.942 18.548C194.784 18.548 194.639 18.5527 194.508 18.562C194.387 18.5713 194.27 18.5807 194.158 18.59V21.222H194.774C195.596 21.222 196.184 21.1193 196.538 20.914C196.893 20.7087 197.07 20.3587 197.07 19.864C197.07 19.388 196.888 19.052 196.524 18.856C196.17 18.6507 195.642 18.548 194.942 18.548ZM201.312 16.798H203.496V26.5H201.312V16.798ZM201.956 13.074L203.944 15.342L202.992 16.196L200.682 14.25L201.956 13.074ZM212.252 26.5C211.627 25.3893 210.95 24.2927 210.222 23.21C209.494 22.1273 208.719 21.1053 207.898 20.144V26.5H205.742V16.798H207.52C207.828 17.106 208.169 17.484 208.542 17.932C208.915 18.38 209.293 18.8607 209.676 19.374C210.068 19.878 210.455 20.4053 210.838 20.956C211.221 21.4973 211.58 22.02 211.916 22.524V16.798H214.086V26.5H212.252ZM222.176 16.798H224.36V26.5H222.176V22.384H218.508V26.5H216.324V16.798H218.508V20.508H222.176V16.798Z" fill="white"/>
</svg>
