<svg width="21" height="21" viewBox="0 0 21 21" fill="none" xmlns="http://www.w3.org/2000/svg">
<path d="M13.1996 10.0847H11.5708C11.5708 12.7183 11.5708 15.96 11.5708 15.96H9.15729C9.15729 15.96 9.15729 12.7497 9.15729 10.0847H8.01001V8.00817H9.15729V6.66505C9.15729 5.70311 9.60894 4.2 11.593 4.2L13.3815 4.20694V6.22264C13.3815 6.22264 12.2947 6.22264 12.0834 6.22264C11.8721 6.22264 11.5716 6.32957 11.5716 6.7883V8.00858H13.4105L13.1996 10.0847Z" fill="#C2D1D9"/>
<mask id="mask0_372_629" style="mask-type:alpha" maskUnits="userSpaceOnUse" x="8" y="4" width="6" height="12">
<path d="M13.1996 10.0847H11.5708C11.5708 12.7183 11.5708 15.96 11.5708 15.96H9.15729C9.15729 15.96 9.15729 12.7497 9.15729 10.0847H8.01001V8.00817H9.15729V6.66505C9.15729 5.70311 9.60894 4.2 11.593 4.2L13.3815 4.20694V6.22264C13.3815 6.22264 12.2947 6.22264 12.0834 6.22264C11.8721 6.22264 11.5716 6.32957 11.5716 6.7883V8.00858H13.4105L13.1996 10.0847Z" fill="white"/>
</mask>
<g mask="url(#mask0_372_629)">
<rect x="0.540039" width="19.92" height="20.16" fill="#424B5A"/>
</g>
</svg>
