<svg width="20" height="21" viewBox="0 0 20 21" fill="none" xmlns="http://www.w3.org/2000/svg">
<path fill-rule="evenodd" clip-rule="evenodd" d="M15.8496 13.687V8.87293V6.47254C15.8496 5.21904 14.8422 4.2 13.6037 4.2H6.47547C5.23689 4.2 4.22998 5.21904 4.22998 6.47254V8.87293V13.687C4.22998 14.941 5.23689 15.96 6.47547 15.96H13.6041C14.8422 15.96 15.8496 14.941 15.8496 13.687ZM12.0853 10.0794C12.0853 11.2208 11.1664 12.1491 10.0394 12.1491C8.91189 12.1491 7.99386 11.2204 7.99509 10.079C7.9955 9.62836 8.13994 9.21233 8.38189 8.87251C8.75429 8.35112 9.35794 8.00964 10.0406 8.00964C10.7228 8.00964 11.3269 8.35154 11.6985 8.87293C11.9396 9.21275 12.0853 9.62878 12.0853 10.0794ZM14.5052 7.54738V5.81247V5.55428L14.2489 5.55511L12.5354 5.56052L12.542 7.55405L14.5052 7.54738ZM10.0398 13.2956C11.7923 13.2956 13.2177 11.8522 13.2177 10.0794C13.2177 9.65293 13.1325 9.24523 12.9815 8.87293H14.7167V13.687C14.7167 14.3092 14.2168 14.8131 13.6033 14.8131H6.47506C5.86071 14.8131 5.36157 14.3092 5.36157 13.687V8.87293H7.09599C6.94621 9.24523 6.86227 9.65293 6.86227 10.0794C6.86227 11.8522 8.28725 13.2956 10.0398 13.2956Z" fill="black"/>
<mask id="mask0_372_616" style="mask-type:alpha" maskUnits="userSpaceOnUse" x="4" y="4" width="12" height="12">
<path fill-rule="evenodd" clip-rule="evenodd" d="M15.8496 13.687V8.87293V6.47254C15.8496 5.21904 14.8422 4.2 13.6037 4.2H6.47547C5.23689 4.2 4.22998 5.21904 4.22998 6.47254V8.87293V13.687C4.22998 14.941 5.23689 15.96 6.47547 15.96H13.6041C14.8422 15.96 15.8496 14.941 15.8496 13.687ZM12.0853 10.0794C12.0853 11.2208 11.1664 12.1491 10.0394 12.1491C8.91189 12.1491 7.99386 11.2204 7.99509 10.079C7.9955 9.62836 8.13994 9.21233 8.38189 8.87251C8.75429 8.35112 9.35794 8.00964 10.0406 8.00964C10.7228 8.00964 11.3269 8.35154 11.6985 8.87293C11.9396 9.21275 12.0853 9.62878 12.0853 10.0794ZM14.5052 7.54738V5.81247V5.55428L14.2489 5.55511L12.5354 5.56052L12.542 7.55405L14.5052 7.54738ZM10.0398 13.2956C11.7923 13.2956 13.2177 11.8522 13.2177 10.0794C13.2177 9.65293 13.1325 9.24523 12.9815 8.87293H14.7167V13.687C14.7167 14.3092 14.2168 14.8131 13.6033 14.8131H6.47506C5.86071 14.8131 5.36157 14.3092 5.36157 13.687V8.87293H7.09599C6.94621 9.24523 6.86227 9.65293 6.86227 10.0794C6.86227 11.8522 8.28725 13.2956 10.0398 13.2956Z" fill="white"/>
</mask>
<g mask="url(#mask0_372_616)">
<rect x="0.0799561" width="19.92" height="20.16" fill="#424B5A"/>
</g>
</svg>
