<svg width="121" height="16" viewBox="0 0 121 16" fill="none" xmlns="http://www.w3.org/2000/svg">
<path d="M30.588 4.684V5.692H27.972V13H26.808V5.692H24.192V4.684H30.588ZM37.0492 4.684H38.2132V13H37.0492V9.16H32.9812V13H31.8172V4.684H32.9812V8.152H37.0492V4.684ZM45.8341 13C45.6981 12.64 45.5701 12.288 45.4501 11.944C45.3301 11.592 45.2061 11.236 45.0781 10.876H41.3101L40.5541 13H39.3421C39.6621 12.12 39.9621 11.308 40.2421 10.564C40.5221 9.812 40.7941 9.1 41.0581 8.428C41.3301 7.756 41.5981 7.116 41.8621 6.508C42.1261 5.892 42.4021 5.284 42.6901 4.684H43.7581C44.0461 5.284 44.3221 5.892 44.5861 6.508C44.8501 7.116 45.1141 7.756 45.3781 8.428C45.6501 9.1 45.9261 9.812 46.2061 10.564C46.4861 11.308 46.7861 12.12 47.1061 13H45.8341ZM44.7421 9.916C44.4861 9.22 44.2301 8.548 43.9741 7.9C43.7261 7.244 43.4661 6.616 43.1941 6.016C42.9141 6.616 42.6461 7.244 42.3901 7.9C42.1421 8.548 41.8941 9.22 41.6461 9.916H44.7421ZM47.6765 8.836C47.6765 8.124 47.7805 7.496 47.9885 6.952C48.2045 6.408 48.4925 5.956 48.8525 5.596C49.2205 5.228 49.6445 4.952 50.1245 4.768C50.6125 4.584 51.1285 4.492 51.6725 4.492C52.2085 4.492 52.7125 4.584 53.1845 4.768C53.6645 4.952 54.0845 5.228 54.4445 5.596C54.8045 5.956 55.0885 6.408 55.2965 6.952C55.5125 7.496 55.6205 8.124 55.6205 8.836C55.6205 9.548 55.5125 10.176 55.2965 10.72C55.0885 11.264 54.8045 11.72 54.4445 12.088C54.0845 12.448 53.6645 12.72 53.1845 12.904C52.7125 13.088 52.2085 13.18 51.6725 13.18C51.1285 13.18 50.6125 13.088 50.1245 12.904C49.6445 12.72 49.2205 12.448 48.8525 12.088C48.4925 11.72 48.2045 11.264 47.9885 10.72C47.7805 10.176 47.6765 9.548 47.6765 8.836ZM48.9005 8.836C48.9005 9.34 48.9645 9.8 49.0925 10.216C49.2205 10.624 49.4005 10.972 49.6325 11.26C49.8725 11.548 50.1605 11.772 50.4965 11.932C50.8405 12.084 51.2245 12.16 51.6485 12.16C52.0725 12.16 52.4525 12.084 52.7885 11.932C53.1245 11.772 53.4085 11.548 53.6405 11.26C53.8805 10.972 54.0645 10.624 54.1925 10.216C54.3205 9.8 54.3845 9.34 54.3845 8.836C54.3845 8.332 54.3205 7.876 54.1925 7.468C54.0645 7.052 53.8805 6.7 53.6405 6.412C53.4085 6.124 53.1245 5.904 52.7885 5.752C52.4525 5.592 52.0725 5.512 51.6485 5.512C51.2245 5.512 50.8405 5.592 50.4965 5.752C50.1605 5.904 49.8725 6.124 49.6325 6.412C49.4005 6.7 49.2205 7.052 49.0925 7.468C48.9645 7.876 48.9005 8.332 48.9005 8.836ZM64.4714 12.484C64.2154 12.484 64.0034 12.448 63.8354 12.376C63.6674 12.304 63.5274 12.208 63.4154 12.088C63.2394 12.184 63.0274 12.268 62.7794 12.34C62.5314 12.404 62.2834 12.436 62.0354 12.436C61.6514 12.436 61.2994 12.376 60.9794 12.256C60.6674 12.136 60.3954 11.96 60.1634 11.728C59.9314 11.488 59.7514 11.196 59.6234 10.852C59.4954 10.508 59.4314 10.108 59.4314 9.652C59.4314 9.268 59.4914 8.908 59.6114 8.572C59.7314 8.228 59.9074 7.932 60.1394 7.684C60.3794 7.428 60.6674 7.228 61.0034 7.084C61.3474 6.94 61.7354 6.868 62.1674 6.868C62.5754 6.868 62.9474 6.9 63.2834 6.964C63.6274 7.028 63.8914 7.092 64.0754 7.156V10.828C64.0754 11.084 64.1194 11.264 64.2074 11.368C64.2954 11.472 64.4114 11.524 64.5554 11.524C64.7634 11.524 64.9434 11.452 65.0954 11.308C65.2554 11.164 65.3834 10.976 65.4794 10.744C65.5834 10.512 65.6594 10.252 65.7074 9.964C65.7554 9.668 65.7794 9.368 65.7794 9.064C65.7794 8.56 65.6914 8.088 65.5154 7.648C65.3394 7.2 65.0874 6.808 64.7594 6.472C64.4314 6.136 64.0314 5.872 63.5594 5.68C63.0954 5.488 62.5714 5.392 61.9874 5.392C61.4034 5.392 60.8674 5.492 60.3794 5.692C59.8914 5.884 59.4714 6.164 59.1194 6.532C58.7674 6.892 58.4914 7.336 58.2914 7.864C58.0994 8.392 58.0034 8.992 58.0034 9.664C58.0034 10.368 58.1074 10.988 58.3154 11.524C58.5234 12.052 58.8114 12.496 59.1794 12.856C59.5554 13.208 59.9954 13.472 60.4994 13.648C61.0114 13.832 61.5714 13.924 62.1794 13.924C62.6514 13.924 63.0394 13.896 63.3434 13.84C63.6554 13.784 63.8554 13.74 63.9434 13.708L64.0634 14.596C63.9274 14.644 63.6794 14.696 63.3194 14.752C62.9674 14.808 62.5874 14.836 62.1794 14.836C61.4674 14.836 60.7954 14.732 60.1634 14.524C59.5314 14.324 58.9794 14.012 58.5074 13.588C58.0354 13.172 57.6594 12.64 57.3794 11.992C57.1074 11.336 56.9714 10.56 56.9714 9.664C56.9714 8.8 57.1074 8.044 57.3794 7.396C57.6514 6.748 58.0154 6.212 58.4714 5.788C58.9354 5.356 59.4674 5.032 60.0674 4.816C60.6754 4.6 61.3154 4.492 61.9874 4.492C62.6434 4.492 63.2634 4.6 63.8474 4.816C64.4314 5.024 64.9434 5.332 65.3834 5.74C65.8234 6.14 66.1714 6.628 66.4274 7.204C66.6834 7.772 66.8114 8.416 66.8114 9.136C66.8114 9.68 66.7474 10.16 66.6194 10.576C66.4994 10.992 66.3354 11.344 66.1274 11.632C65.9194 11.912 65.6714 12.124 65.3834 12.268C65.0954 12.412 64.7914 12.484 64.4714 12.484ZM62.0714 11.512C62.2394 11.512 62.4074 11.496 62.5754 11.464C62.7514 11.424 62.9074 11.368 63.0434 11.296C63.0194 11.192 63.0034 11.088 62.9954 10.984C62.9874 10.88 62.9834 10.78 62.9834 10.684V7.864C62.9354 7.848 62.8434 7.832 62.7074 7.816C62.5714 7.8 62.4194 7.792 62.2514 7.792C61.6834 7.792 61.2594 7.968 60.9794 8.32C60.6994 8.672 60.5594 9.116 60.5594 9.652C60.5594 10.22 60.6954 10.672 60.9674 11.008C61.2394 11.344 61.6074 11.512 62.0714 11.512ZM72.3053 10.324C72.3053 10.724 72.2613 11.096 72.1733 11.44C72.0933 11.784 71.9453 12.088 71.7293 12.352C71.5213 12.608 71.2373 12.812 70.8773 12.964C70.5253 13.108 70.0813 13.18 69.5453 13.18C69.2733 13.18 69.0213 13.156 68.7893 13.108C68.5653 13.068 68.3613 13.016 68.1773 12.952C67.9933 12.88 67.8333 12.808 67.6973 12.736C67.5613 12.656 67.4533 12.58 67.3733 12.508L67.8293 11.584C67.9973 11.704 68.2133 11.832 68.4773 11.968C68.7493 12.096 69.0853 12.16 69.4853 12.16C70.0613 12.16 70.4813 12.016 70.7453 11.728C71.0093 11.432 71.1413 10.928 71.1413 10.216V4.684H72.3053V10.324ZM76.5173 4.6C77.6853 4.6 78.5813 4.824 79.2053 5.272C79.8373 5.712 80.1533 6.372 80.1533 7.252C80.1533 7.732 80.0653 8.144 79.8893 8.488C79.7213 8.824 79.4733 9.1 79.1453 9.316C78.8253 9.524 78.4333 9.676 77.9693 9.772C77.5053 9.868 76.9813 9.916 76.3973 9.916H75.4733V13H74.3093V4.804C74.6373 4.724 75.0013 4.672 75.4013 4.648C75.8093 4.616 76.1813 4.6 76.5173 4.6ZM76.6133 5.62C76.1173 5.62 75.7373 5.632 75.4733 5.656V8.92H76.3493C76.7493 8.92 77.1093 8.896 77.4293 8.848C77.7493 8.792 78.0173 8.704 78.2333 8.584C78.4573 8.456 78.6293 8.284 78.7493 8.068C78.8693 7.852 78.9293 7.576 78.9293 7.24C78.9293 6.92 78.8653 6.656 78.7373 6.448C78.6173 6.24 78.4493 6.076 78.2333 5.956C78.0253 5.828 77.7813 5.74 77.5013 5.692C77.2213 5.644 76.9253 5.62 76.6133 5.62ZM81.78 12.352C81.78 12.568 81.708 12.756 81.564 12.916C81.42 13.076 81.224 13.156 80.976 13.156C80.728 13.156 80.532 13.076 80.388 12.916C80.244 12.756 80.172 12.568 80.172 12.352C80.172 12.136 80.244 11.948 80.388 11.788C80.532 11.628 80.728 11.548 80.976 11.548C81.224 11.548 81.42 11.628 81.564 11.788C81.708 11.948 81.78 12.136 81.78 12.352ZM86.7096 13.18C86.1256 13.18 85.5936 13.084 85.1136 12.892C84.6336 12.7 84.2216 12.42 83.8776 12.052C83.5336 11.684 83.2656 11.232 83.0736 10.696C82.8896 10.152 82.7976 9.532 82.7976 8.836C82.7976 8.14 82.9016 7.524 83.1096 6.988C83.3256 6.444 83.6136 5.988 83.9736 5.62C84.3336 5.252 84.7536 4.972 85.2336 4.78C85.7136 4.588 86.2256 4.492 86.7696 4.492C87.1136 4.492 87.4216 4.516 87.6936 4.564C87.9736 4.612 88.2136 4.668 88.4136 4.732C88.6216 4.796 88.7896 4.86 88.9176 4.924C89.0456 4.988 89.1336 5.036 89.1816 5.068L88.8456 6.028C88.7736 5.98 88.6696 5.928 88.5336 5.872C88.3976 5.816 88.2416 5.76 88.0656 5.704C87.8976 5.648 87.7096 5.604 87.5016 5.572C87.3016 5.532 87.0976 5.512 86.8896 5.512C86.4496 5.512 86.0536 5.588 85.7016 5.74C85.3496 5.892 85.0496 6.112 84.8016 6.4C84.5536 6.688 84.3616 7.04 84.2256 7.456C84.0976 7.864 84.0336 8.324 84.0336 8.836C84.0336 9.332 84.0896 9.784 84.2016 10.192C84.3216 10.6 84.4976 10.952 84.7296 11.248C84.9616 11.536 85.2496 11.76 85.5936 11.92C85.9456 12.08 86.3536 12.16 86.8176 12.16C87.3536 12.16 87.7976 12.104 88.1496 11.992C88.5016 11.88 88.7656 11.78 88.9416 11.692L89.2416 12.652C89.1856 12.692 89.0856 12.744 88.9416 12.808C88.7976 12.864 88.6176 12.92 88.4016 12.976C88.1856 13.032 87.9336 13.08 87.6456 13.12C87.3576 13.16 87.0456 13.18 86.7096 13.18ZM90.0046 8.836C90.0046 8.124 90.1086 7.496 90.3166 6.952C90.5326 6.408 90.8206 5.956 91.1806 5.596C91.5486 5.228 91.9726 4.952 92.4526 4.768C92.9406 4.584 93.4566 4.492 94.0006 4.492C94.5366 4.492 95.0406 4.584 95.5126 4.768C95.9926 4.952 96.4126 5.228 96.7726 5.596C97.1326 5.956 97.4166 6.408 97.6246 6.952C97.8406 7.496 97.9486 8.124 97.9486 8.836C97.9486 9.548 97.8406 10.176 97.6246 10.72C97.4166 11.264 97.1326 11.72 96.7726 12.088C96.4126 12.448 95.9926 12.72 95.5126 12.904C95.0406 13.088 94.5366 13.18 94.0006 13.18C93.4566 13.18 92.9406 13.088 92.4526 12.904C91.9726 12.72 91.5486 12.448 91.1806 12.088C90.8206 11.72 90.5326 11.264 90.3166 10.72C90.1086 10.176 90.0046 9.548 90.0046 8.836ZM91.2286 8.836C91.2286 9.34 91.2926 9.8 91.4206 10.216C91.5486 10.624 91.7286 10.972 91.9606 11.26C92.2006 11.548 92.4886 11.772 92.8246 11.932C93.1686 12.084 93.5526 12.16 93.9766 12.16C94.4006 12.16 94.7806 12.084 95.1166 11.932C95.4526 11.772 95.7366 11.548 95.9686 11.26C96.2086 10.972 96.3926 10.624 96.5206 10.216C96.6486 9.8 96.7126 9.34 96.7126 8.836C96.7126 8.332 96.6486 7.876 96.5206 7.468C96.3926 7.052 96.2086 6.7 95.9686 6.412C95.7366 6.124 95.4526 5.904 95.1166 5.752C94.7806 5.592 94.4006 5.512 93.9766 5.512C93.5526 5.512 93.1686 5.592 92.8246 5.752C92.4886 5.904 92.2006 6.124 91.9606 6.412C91.7286 6.7 91.5486 7.052 91.4206 7.468C91.2926 7.876 91.2286 8.332 91.2286 8.836ZM103.412 11.848C103.332 11.656 103.224 11.412 103.088 11.116C102.96 10.82 102.82 10.5 102.668 10.156C102.516 9.812 102.352 9.46 102.176 9.1C102.008 8.732 101.848 8.388 101.696 8.068C101.544 7.74 101.4 7.448 101.264 7.192C101.136 6.936 101.032 6.74 100.952 6.604C100.864 7.548 100.792 8.572 100.736 9.676C100.68 10.772 100.632 11.88 100.592 13H99.4524C99.4844 12.28 99.5204 11.556 99.5604 10.828C99.6004 10.092 99.6444 9.372 99.6924 8.668C99.7484 7.956 99.8044 7.264 99.8604 6.592C99.9244 5.92 99.9924 5.284 100.064 4.684H101.084C101.3 5.036 101.532 5.452 101.78 5.932C102.028 6.412 102.276 6.916 102.524 7.444C102.772 7.964 103.012 8.488 103.244 9.016C103.476 9.536 103.688 10.012 103.88 10.444C104.072 10.012 104.284 9.536 104.516 9.016C104.748 8.488 104.988 7.964 105.236 7.444C105.484 6.916 105.732 6.412 105.98 5.932C106.228 5.452 106.46 5.036 106.676 4.684H107.696C107.968 7.364 108.172 10.136 108.308 13H107.168C107.128 11.88 107.08 10.772 107.024 9.676C106.968 8.572 106.896 7.548 106.808 6.604C106.728 6.74 106.62 6.936 106.484 7.192C106.356 7.448 106.216 7.74 106.064 8.068C105.912 8.388 105.748 8.732 105.572 9.1C105.404 9.46 105.244 9.812 105.092 10.156C104.94 10.5 104.796 10.82 104.66 11.116C104.532 11.412 104.428 11.656 104.348 11.848H103.412Z" fill="#424B5A"/>
<path fill-rule="evenodd" clip-rule="evenodd" d="M13.3334 2H2.66675C1.56545 2 0.673414 2.89823 0.673414 4L0.666748 11.9994C0.666748 13.1015 1.56522 14 2.66675 14H13.3334C14.4349 14 15.3334 13.1015 15.3334 12V4C15.3334 2.89848 14.4349 2 13.3334 2ZM3.65612 6.0001C3.34075 5.81008 3.23914 5.40039 3.42916 5.08502C3.61917 4.76965 4.02887 4.66803 4.34424 4.85805L7.98054 7.04902L11.7747 4.76296C12.0905 4.57264 12.5009 4.67442 12.6912 4.99029C12.8811 5.30545 12.7803 5.71483 12.4657 5.90574L8.00672 8.61201L8.00255 8.61893L3.65612 6.0001Z" fill="#979797"/>
<mask id="mask0_372_646" style="mask-type:alpha" maskUnits="userSpaceOnUse" x="0" y="2" width="16" height="12">
<path fill-rule="evenodd" clip-rule="evenodd" d="M13.3334 2H2.66675C1.56545 2 0.673414 2.89823 0.673414 4L0.666748 11.9994C0.666748 13.1015 1.56522 14 2.66675 14H13.3334C14.4349 14 15.3334 13.1015 15.3334 12V4C15.3334 2.89848 14.4349 2 13.3334 2ZM3.65612 6.0001C3.34075 5.81008 3.23914 5.40039 3.42916 5.08502C3.61917 4.76965 4.02887 4.66803 4.34424 4.85805L7.98054 7.04902L11.7747 4.76296C12.0905 4.57264 12.5009 4.67442 12.6912 4.99029C12.8811 5.30545 12.7803 5.71483 12.4657 5.90574L8.00672 8.61201L8.00255 8.61893L3.65612 6.0001Z" fill="white"/>
</mask>
<g mask="url(#mask0_372_646)">
<rect width="16" height="16" fill="#424B5A"/>
</g>
</svg>
