<svg width="166" height="36" viewBox="0 0 166 36" fill="none" xmlns="http://www.w3.org/2000/svg">
<g clip-path="url(#clip0_21_6703)">
<rect width="166" height="36" fill="#D8D8D8"/>
<rect width="166" height="36" fill="#424B5A"/>
<g clip-path="url(#clip1_21_6703)">
<path fill-rule="evenodd" clip-rule="evenodd" d="M131.123 24C131.676 24 132.123 23.5523 132.123 23C132.123 22.4477 131.676 22 131.123 22H115.123C114.571 22 114.123 22.4477 114.123 23C114.123 23.5523 114.571 24 115.123 24H131.123ZM131.123 19C131.676 19 132.123 18.5523 132.123 18C132.123 17.4477 131.676 17 131.123 17H115.123C114.571 17 114.123 17.4477 114.123 18C114.123 18.5523 114.571 19 115.123 19H131.123ZM114.123 13C114.123 13.5523 114.571 14 115.123 14H131.123C131.676 14 132.123 13.5523 132.123 13C132.123 12.4477 131.676 12 131.123 12H115.123C114.571 12 114.123 12.4477 114.123 13Z" fill="#C2D1D9"/>
<mask id="mask0_21_6703" style="mask-type:luminance" maskUnits="userSpaceOnUse" x="114" y="12" width="19" height="12">
<path fill-rule="evenodd" clip-rule="evenodd" d="M131.123 24C131.676 24 132.123 23.5523 132.123 23C132.123 22.4477 131.676 22 131.123 22H115.123C114.571 22 114.123 22.4477 114.123 23C114.123 23.5523 114.571 24 115.123 24H131.123ZM131.123 19C131.676 19 132.123 18.5523 132.123 18C132.123 17.4477 131.676 17 131.123 17H115.123C114.571 17 114.123 17.4477 114.123 18C114.123 18.5523 114.571 19 115.123 19H131.123ZM114.123 13C114.123 13.5523 114.571 14 115.123 14H131.123C131.676 14 132.123 13.5523 132.123 13C132.123 12.4477 131.676 12 131.123 12H115.123C114.571 12 114.123 12.4477 114.123 13Z" fill="white"/>
</mask>
<g mask="url(#mask0_21_6703)">
<rect x="111.123" y="5.99998" width="24" height="24" fill="#C2D1D9"/>
</g>
<path d="M23.9957 22.6244C23.4117 22.6244 22.8797 22.5284 22.3997 22.3364C21.9197 22.1444 21.5077 21.8644 21.1637 21.4964C20.8197 21.1284 20.5517 20.6764 20.3597 20.1404C20.1757 19.5964 20.0837 18.9764 20.0837 18.2804C20.0837 17.5844 20.1877 16.9684 20.3957 16.4324C20.6117 15.8884 20.8997 15.4324 21.2597 15.0644C21.6197 14.6964 22.0397 14.4164 22.5197 14.2244C22.9997 14.0324 23.5117 13.9364 24.0557 13.9364C24.3997 13.9364 24.7077 13.9604 24.9797 14.0084C25.2597 14.0564 25.4997 14.1124 25.6997 14.1764C25.9077 14.2404 26.0757 14.3044 26.2037 14.3684C26.3317 14.4324 26.4197 14.4804 26.4677 14.5124L26.1317 15.4724C26.0597 15.4244 25.9557 15.3724 25.8197 15.3164C25.6837 15.2604 25.5277 15.2044 25.3517 15.1484C25.1837 15.0924 24.9957 15.0484 24.7877 15.0164C24.5877 14.9764 24.3837 14.9564 24.1757 14.9564C23.7357 14.9564 23.3397 15.0324 22.9877 15.1844C22.6357 15.3364 22.3357 15.5564 22.0877 15.8444C21.8397 16.1324 21.6477 16.4844 21.5117 16.9004C21.3837 17.3084 21.3197 17.7684 21.3197 18.2804C21.3197 18.7764 21.3757 19.2284 21.4877 19.6364C21.6077 20.0444 21.7837 20.3964 22.0157 20.6924C22.2477 20.9804 22.5357 21.2044 22.8797 21.3644C23.2317 21.5244 23.6397 21.6044 24.1037 21.6044C24.6397 21.6044 25.0837 21.5484 25.4357 21.4364C25.7877 21.3244 26.0517 21.2244 26.2277 21.1364L26.5277 22.0964C26.4717 22.1364 26.3717 22.1884 26.2277 22.2524C26.0837 22.3084 25.9037 22.3644 25.6877 22.4204C25.4717 22.4764 25.2197 22.5244 24.9317 22.5644C24.6437 22.6044 24.3317 22.6244 23.9957 22.6244ZM33.0931 14.1284H34.2571V22.4444H33.0931V18.6044H29.0251V22.4444H27.8611V14.1284H29.0251V17.5964H33.0931V14.1284ZM44.086 12.8324C44.094 12.9204 44.098 13.0044 44.098 13.0844C44.098 13.1564 44.098 13.2164 44.098 13.2644C44.098 13.4484 44.074 13.6324 44.026 13.8164C43.978 14.0004 43.894 14.1724 43.774 14.3324C43.654 14.4844 43.494 14.6164 43.294 14.7284C43.102 14.8324 42.862 14.9004 42.574 14.9324V19.3484C42.574 19.8124 42.51 20.2444 42.382 20.6444C42.262 21.0444 42.07 21.3924 41.806 21.6884C41.55 21.9764 41.222 22.2044 40.822 22.3724C40.43 22.5404 39.962 22.6244 39.418 22.6244C38.874 22.6244 38.402 22.5404 38.002 22.3724C37.602 22.2044 37.274 21.9764 37.018 21.6884C36.762 21.3924 36.57 21.0444 36.442 20.6444C36.322 20.2444 36.262 19.8124 36.262 19.3484V14.1284H37.426V19.2164C37.426 19.6324 37.474 19.9924 37.57 20.2964C37.666 20.5924 37.802 20.8364 37.978 21.0284C38.154 21.2204 38.362 21.3644 38.602 21.4604C38.85 21.5484 39.122 21.5924 39.418 21.5924C39.714 21.5924 39.982 21.5484 40.222 21.4604C40.47 21.3644 40.682 21.2204 40.858 21.0284C41.034 20.8364 41.17 20.5924 41.266 20.2964C41.362 19.9924 41.41 19.6324 41.41 19.2164V14.1284H42.286C42.47 14.1284 42.63 14.0604 42.766 13.9244C42.91 13.7884 42.982 13.5764 42.982 13.2884C42.982 13.2084 42.978 13.1244 42.97 13.0364C42.97 12.9484 42.966 12.8804 42.958 12.8324H44.086ZM45.7296 18.2804C45.7296 18.7844 45.7936 19.2444 45.9216 19.6604C46.0496 20.0684 46.2296 20.4164 46.4616 20.7044C46.7016 20.9924 46.9896 21.2164 47.3256 21.3764C47.6696 21.5284 48.0536 21.6044 48.4776 21.6044C48.8936 21.6044 49.2696 21.5284 49.6056 21.3764C49.9496 21.2164 50.2376 20.9924 50.4696 20.7044C50.7096 20.4164 50.8936 20.0684 51.0216 19.6604C51.1496 19.2444 51.2136 18.7844 51.2136 18.2804C51.2136 17.7764 51.1496 17.3204 51.0216 16.9124C50.8936 16.4964 50.7096 16.1444 50.4696 15.8564C50.2376 15.5684 49.9496 15.3484 49.6056 15.1964C49.2696 15.0364 48.8936 14.9564 48.4776 14.9564C48.0536 14.9564 47.6696 15.0364 47.3256 15.1964C46.9896 15.3484 46.7016 15.5684 46.4616 15.8564C46.2296 16.1444 46.0496 16.4964 45.9216 16.9124C45.7936 17.3204 45.7296 17.7764 45.7296 18.2804ZM52.4616 13.2644C52.4616 13.6484 52.3776 14.0124 52.2096 14.3564C52.0496 14.7004 51.8176 15.0164 51.5136 15.3044C51.8016 15.6644 52.0296 16.0924 52.1976 16.5884C52.3656 17.0844 52.4496 17.6484 52.4496 18.2804C52.4496 18.9924 52.3416 19.6204 52.1256 20.1644C51.9176 20.7084 51.6336 21.1644 51.2736 21.5324C50.9136 21.8924 50.4936 22.1644 50.0136 22.3484C49.5416 22.5324 49.0376 22.6244 48.5016 22.6244C47.9576 22.6244 47.4416 22.5324 46.9536 22.3484C46.4736 22.1644 46.0496 21.8924 45.6816 21.5324C45.3216 21.1644 45.0336 20.7084 44.8176 20.1644C44.6096 19.6204 44.5056 18.9924 44.5056 18.2804C44.5056 17.5684 44.6096 16.9404 44.8176 16.3964C45.0336 15.8524 45.3216 15.4004 45.6816 15.0404C46.0496 14.6724 46.4736 14.3964 46.9536 14.2124C47.4416 14.0284 47.9576 13.9364 48.5016 13.9364C48.9416 13.9364 49.3616 14.0004 49.7616 14.1284C50.1616 14.2484 50.5296 14.4364 50.8656 14.6924C51.0736 14.4604 51.2056 14.2404 51.2616 14.0324C51.3176 13.8164 51.3456 13.5684 51.3456 13.2884C51.3456 13.2084 51.3416 13.1244 51.3336 13.0364C51.3336 12.9484 51.3296 12.8804 51.3216 12.8324H52.4496C52.4576 12.9204 52.4616 13.0044 52.4616 13.0844C52.4616 13.1564 52.4616 13.2164 52.4616 13.2644ZM59.8814 22.4444C59.7054 22.1484 59.5014 21.8164 59.2694 21.4484C59.0454 21.0804 58.8014 20.7004 58.5374 20.3084C58.2734 19.9084 57.9974 19.5044 57.7094 19.0964C57.4294 18.6884 57.1494 18.2964 56.8694 17.9204C56.5894 17.5364 56.3174 17.1764 56.0534 16.8404C55.7894 16.5044 55.5454 16.2084 55.3214 15.9524V22.4444H54.1814V14.1284H55.1054C55.4814 14.5284 55.8814 14.9964 56.3054 15.5324C56.7374 16.0604 57.1614 16.6084 57.5774 17.1764C58.0014 17.7364 58.3974 18.2884 58.7654 18.8324C59.1414 19.3764 59.4574 19.8604 59.7134 20.2844V14.1284H60.8534V22.4444H59.8814ZM67.9879 18.3524H69.1519V22.2404C69.0559 22.2724 68.9159 22.3084 68.7319 22.3484C68.5559 22.3884 68.3479 22.4284 68.1079 22.4684C67.8759 22.5084 67.6199 22.5404 67.3399 22.5644C67.0599 22.5964 66.7759 22.6124 66.4879 22.6124C65.9039 22.6124 65.3719 22.5164 64.8919 22.3244C64.4119 22.1324 63.9999 21.8524 63.6559 21.4844C63.3119 21.1164 63.0439 20.6644 62.8519 20.1284C62.6679 19.5924 62.5759 18.9764 62.5759 18.2804C62.5759 17.5844 62.6799 16.9684 62.8879 16.4324C63.1039 15.8884 63.3919 15.4324 63.7519 15.0644C64.1119 14.6964 64.5319 14.4164 65.0119 14.2244C65.4999 14.0324 66.0199 13.9364 66.5719 13.9364C66.9479 13.9364 67.2799 13.9604 67.5679 14.0084C67.8639 14.0564 68.1159 14.1124 68.3239 14.1764C68.5319 14.2404 68.6999 14.3044 68.8279 14.3684C68.9639 14.4324 69.0559 14.4804 69.1039 14.5124L68.7319 15.4844C68.4999 15.3324 68.1919 15.2084 67.8079 15.1124C67.4239 15.0084 67.0319 14.9564 66.6319 14.9564C66.2079 14.9564 65.8199 15.0324 65.4679 15.1844C65.1239 15.3364 64.8279 15.5564 64.5799 15.8444C64.3399 16.1324 64.1519 16.4844 64.0159 16.9004C63.8799 17.3084 63.8119 17.7684 63.8119 18.2804C63.8119 18.7764 63.8679 19.2284 63.9799 19.6364C64.0999 20.0444 64.2759 20.3964 64.5079 20.6924C64.7479 20.9804 65.0399 21.2044 65.3839 21.3644C65.7359 21.5244 66.1479 21.6044 66.6199 21.6044C66.9559 21.6044 67.2399 21.5884 67.4719 21.5564C67.7119 21.5164 67.8839 21.4804 67.9879 21.4484V18.3524ZM79.3077 14.1284V15.1364H76.6917V22.4444H75.5277V15.1364H72.9117V14.1284H79.3077ZM84.6049 18.9644C84.7329 19.1244 84.8929 19.3364 85.0849 19.6004C85.2849 19.8564 85.4889 20.1444 85.6969 20.4644C85.9049 20.7764 86.1089 21.1044 86.3089 21.4484C86.5169 21.7924 86.6929 22.1244 86.8369 22.4444H85.5649C85.4049 22.1404 85.2289 21.8324 85.0369 21.5204C84.8529 21.2084 84.6649 20.9124 84.4729 20.6324C84.2809 20.3444 84.0889 20.0764 83.8969 19.8284C83.7129 19.5804 83.5449 19.3644 83.3929 19.1804C83.2889 19.1884 83.1809 19.1924 83.0689 19.1924C82.9649 19.1924 82.8569 19.1924 82.7449 19.1924H81.7009V22.4444H80.5369V14.2484C80.8649 14.1684 81.2289 14.1164 81.6289 14.0924C82.0369 14.0604 82.4089 14.0444 82.7449 14.0444C83.9129 14.0444 84.8009 14.2644 85.4089 14.7044C86.0249 15.1444 86.3329 15.8004 86.3329 16.6724C86.3329 17.2244 86.1849 17.6964 85.8889 18.0884C85.6009 18.4804 85.1729 18.7724 84.6049 18.9644ZM82.8409 15.0644C82.3449 15.0644 81.9649 15.0764 81.7009 15.1004V18.2324H82.5289C82.9289 18.2324 83.2889 18.2124 83.6089 18.1724C83.9289 18.1324 84.1969 18.0564 84.4129 17.9444C84.6369 17.8324 84.8089 17.6764 84.9289 17.4764C85.0489 17.2684 85.1089 16.9964 85.1089 16.6604C85.1089 16.3484 85.0489 16.0884 84.9289 15.8804C84.8089 15.6724 84.6449 15.5084 84.4369 15.3884C84.2369 15.2684 83.9969 15.1844 83.7169 15.1364C83.4449 15.0884 83.1529 15.0644 82.8409 15.0644ZM88.0838 14.1284H89.2478V22.4444H88.0838V14.1284ZM87.9518 11.2604L89.4878 13.1084L88.9238 13.6124L87.2318 11.9684L87.9518 11.2604ZM97.0064 22.4444C96.8304 22.1484 96.6264 21.8164 96.3944 21.4484C96.1704 21.0804 95.9264 20.7004 95.6624 20.3084C95.3984 19.9084 95.1224 19.5044 94.8344 19.0964C94.5544 18.6884 94.2744 18.2964 93.9944 17.9204C93.7144 17.5364 93.4424 17.1764 93.1784 16.8404C92.9144 16.5044 92.6704 16.2084 92.4464 15.9524V22.4444H91.3064V14.1284H92.2304C92.6064 14.5284 93.0064 14.9964 93.4304 15.5324C93.8624 16.0604 94.2864 16.6084 94.7024 17.1764C95.1264 17.7364 95.5224 18.2884 95.8904 18.8324C96.2664 19.3764 96.5824 19.8604 96.8384 20.2844V14.1284H97.9784V22.4444H97.0064ZM105.269 14.1284H106.433V22.4444H105.269V18.6044H101.201V22.4444H100.037V14.1284H101.201V17.5964H105.269V14.1284Z" fill="white"/>
</g>
</g>
<defs>
<clipPath id="clip0_21_6703">
<rect width="166" height="36" rx="3" fill="white"/>
</clipPath>
<clipPath id="clip1_21_6703">
<rect width="114.836" height="24" fill="white" transform="translate(20.4658 6.44444)"/>
</clipPath>
</defs>
</svg>
