<svg width="99" height="16" viewBox="0 0 99 16" fill="none" xmlns="http://www.w3.org/2000/svg">
<g clip-path="url(#clip0_372_639)">
<path d="M30.012 8.008C30.012 9.656 29.6 10.904 28.776 11.752C27.96 12.592 26.744 13.016 25.128 13.024L25.092 12.088C25.596 12.088 26.048 12.04 26.448 11.944C26.856 11.848 27.212 11.696 27.516 11.488C27.82 11.272 28.072 10.996 28.272 10.66C28.48 10.324 28.632 9.912 28.728 9.424C28.52 9.52 28.284 9.6 28.02 9.664C27.756 9.72 27.484 9.748 27.204 9.748C26.732 9.748 26.332 9.68 26.004 9.544C25.676 9.4 25.408 9.212 25.2 8.98C24.992 8.74 24.84 8.468 24.744 8.164C24.656 7.852 24.612 7.528 24.612 7.192C24.612 6.896 24.664 6.588 24.768 6.268C24.872 5.948 25.028 5.656 25.236 5.392C25.452 5.128 25.724 4.912 26.052 4.744C26.38 4.576 26.768 4.492 27.216 4.492C27.672 4.492 28.072 4.572 28.416 4.732C28.768 4.892 29.06 5.124 29.292 5.428C29.532 5.732 29.712 6.104 29.832 6.544C29.952 6.976 30.012 7.464 30.012 8.008ZM27.324 8.836C27.604 8.836 27.868 8.812 28.116 8.764C28.364 8.708 28.604 8.628 28.836 8.524C28.844 8.436 28.848 8.352 28.848 8.272C28.848 8.184 28.848 8.096 28.848 8.008C28.848 7.664 28.824 7.336 28.776 7.024C28.728 6.704 28.64 6.428 28.512 6.196C28.392 5.956 28.228 5.768 28.02 5.632C27.812 5.488 27.548 5.416 27.228 5.416C26.964 5.416 26.74 5.472 26.556 5.584C26.372 5.696 26.22 5.84 26.1 6.016C25.98 6.184 25.892 6.372 25.836 6.58C25.788 6.78 25.764 6.976 25.764 7.168C25.764 7.712 25.892 8.128 26.148 8.416C26.412 8.696 26.804 8.836 27.324 8.836ZM31.5294 9.664C31.5294 8.856 31.6414 8.144 31.8654 7.528C32.0894 6.904 32.4054 6.38 32.8134 5.956C33.2294 5.532 33.7294 5.212 34.3134 4.996C34.9054 4.772 35.5694 4.656 36.3054 4.648L36.3894 5.584C35.9174 5.592 35.4854 5.644 35.0934 5.74C34.7094 5.836 34.3654 5.988 34.0614 6.196C33.7574 6.404 33.5014 6.676 33.2934 7.012C33.0854 7.34 32.9294 7.748 32.8254 8.236C33.0334 8.14 33.2654 8.06 33.5214 7.996C33.7854 7.932 34.0574 7.9 34.3374 7.9C34.8094 7.9 35.2094 7.972 35.5374 8.116C35.8654 8.26 36.1334 8.452 36.3414 8.692C36.5494 8.924 36.6974 9.196 36.7854 9.508C36.8814 9.812 36.9294 10.132 36.9294 10.468C36.9294 10.772 36.8774 11.084 36.7734 11.404C36.6694 11.724 36.5094 12.016 36.2934 12.28C36.0854 12.544 35.8174 12.76 35.4894 12.928C35.1614 13.096 34.7734 13.18 34.3254 13.18C33.4134 13.18 32.7174 12.868 32.2374 12.244C31.7654 11.62 31.5294 10.76 31.5294 9.664ZM34.2174 8.812C33.9374 8.812 33.6774 8.84 33.4374 8.896C33.1974 8.944 32.9574 9.02 32.7174 9.124C32.7094 9.212 32.7014 9.304 32.6934 9.4C32.6934 9.488 32.6934 9.576 32.6934 9.664C32.6934 10.016 32.7174 10.348 32.7654 10.66C32.8134 10.972 32.8974 11.248 33.0174 11.488C33.1454 11.72 33.3134 11.908 33.5214 12.052C33.7294 12.188 33.9934 12.256 34.3134 12.256C34.5774 12.256 34.8014 12.2 34.9854 12.088C35.1694 11.976 35.3214 11.832 35.4414 11.656C35.5614 11.48 35.6454 11.292 35.6934 11.092C35.7494 10.884 35.7774 10.684 35.7774 10.492C35.7774 9.948 35.6454 9.532 35.3814 9.244C35.1254 8.956 34.7374 8.812 34.2174 8.812ZM38.0269 10.12C38.1789 9.768 38.3869 9.36 38.6509 8.896C38.9149 8.424 39.2109 7.94 39.5389 7.444C39.8749 6.948 40.2309 6.46 40.6069 5.98C40.9909 5.5 41.3749 5.068 41.7589 4.684H42.8269V9.964H43.8109V10.876H42.8269V13H41.7469V10.876H38.0269V10.12ZM41.7469 6.004C41.5069 6.26 41.2629 6.548 41.0149 6.868C40.7749 7.18 40.5389 7.508 40.3069 7.852C40.0749 8.196 39.8549 8.548 39.6469 8.908C39.4469 9.268 39.2669 9.62 39.1069 9.964H41.7469V6.004ZM44.6323 8.884H47.5963V9.928H44.6323V8.884ZM48.6623 9.664C48.6623 8.856 48.7743 8.144 48.9983 7.528C49.2223 6.904 49.5383 6.38 49.9463 5.956C50.3623 5.532 50.8623 5.212 51.4463 4.996C52.0383 4.772 52.7023 4.656 53.4383 4.648L53.5223 5.584C53.0503 5.592 52.6183 5.644 52.2263 5.74C51.8423 5.836 51.4983 5.988 51.1943 6.196C50.8903 6.404 50.6343 6.676 50.4263 7.012C50.2183 7.34 50.0623 7.748 49.9583 8.236C50.1663 8.14 50.3983 8.06 50.6543 7.996C50.9183 7.932 51.1903 7.9 51.4703 7.9C51.9423 7.9 52.3423 7.972 52.6703 8.116C52.9983 8.26 53.2663 8.452 53.4743 8.692C53.6823 8.924 53.8303 9.196 53.9183 9.508C54.0143 9.812 54.0623 10.132 54.0623 10.468C54.0623 10.772 54.0103 11.084 53.9062 11.404C53.8023 11.724 53.6423 12.016 53.4263 12.28C53.2183 12.544 52.9503 12.76 52.6223 12.928C52.2943 13.096 51.9063 13.18 51.4583 13.18C50.5463 13.18 49.8503 12.868 49.3703 12.244C48.8983 11.62 48.6623 10.76 48.6623 9.664ZM51.3503 8.812C51.0703 8.812 50.8103 8.84 50.5703 8.896C50.3303 8.944 50.0903 9.02 49.8503 9.124C49.8423 9.212 49.8343 9.304 49.8263 9.4C49.8263 9.488 49.8263 9.576 49.8263 9.664C49.8263 10.016 49.8503 10.348 49.8983 10.66C49.9463 10.972 50.0303 11.248 50.1503 11.488C50.2783 11.72 50.4463 11.908 50.6543 12.052C50.8623 12.188 51.1263 12.256 51.4463 12.256C51.7103 12.256 51.9343 12.2 52.1183 12.088C52.3023 11.976 52.4543 11.832 52.5743 11.656C52.6943 11.48 52.7783 11.292 52.8263 11.092C52.8823 10.884 52.9103 10.684 52.9103 10.492C52.9103 9.948 52.7783 9.532 52.5143 9.244C52.2583 8.956 51.8703 8.812 51.3503 8.812ZM60.2837 6.808C60.2837 7.096 60.2237 7.376 60.1037 7.648C59.9917 7.912 59.8397 8.176 59.6477 8.44C59.4557 8.696 59.2397 8.952 58.9997 9.208C58.7597 9.456 58.5197 9.7 58.2797 9.94C58.1437 10.076 57.9837 10.236 57.7997 10.42C57.6237 10.604 57.4557 10.796 57.2957 10.996C57.1357 11.196 56.9997 11.388 56.8877 11.572C56.7837 11.756 56.7317 11.916 56.7317 12.052H60.5597V13H55.5197C55.5117 12.952 55.5077 12.904 55.5077 12.856C55.5077 12.808 55.5077 12.764 55.5077 12.724C55.5077 12.348 55.5677 12 55.6877 11.68C55.8157 11.352 55.9797 11.044 56.1797 10.756C56.3797 10.468 56.6037 10.196 56.8517 9.94C57.0997 9.684 57.3437 9.436 57.5837 9.196C57.7837 9.004 57.9717 8.816 58.1477 8.632C58.3317 8.44 58.4917 8.252 58.6277 8.068C58.7717 7.876 58.8837 7.68 58.9637 7.48C59.0517 7.28 59.0957 7.068 59.0957 6.844C59.0957 6.604 59.0557 6.4 58.9757 6.232C58.9037 6.064 58.8037 5.924 58.6757 5.812C58.5477 5.7 58.3957 5.62 58.2197 5.572C58.0517 5.516 57.8717 5.488 57.6797 5.488C57.4477 5.488 57.2357 5.52 57.0437 5.584C56.8517 5.648 56.6797 5.724 56.5277 5.812C56.3757 5.892 56.2477 5.98 56.1437 6.076C56.0397 6.164 55.9597 6.232 55.9037 6.28L55.3517 5.488C55.4237 5.408 55.5317 5.312 55.6757 5.2C55.8197 5.08 55.9917 4.968 56.1917 4.864C56.3917 4.76 56.6157 4.672 56.8637 4.6C57.1117 4.528 57.3797 4.492 57.6677 4.492C58.5397 4.492 59.1917 4.696 59.6237 5.104C60.0637 5.504 60.2837 6.072 60.2837 6.808ZM67.0571 6.808C67.0571 7.096 66.9971 7.376 66.8771 7.648C66.7651 7.912 66.6131 8.176 66.4211 8.44C66.2291 8.696 66.0131 8.952 65.7731 9.208C65.5331 9.456 65.2931 9.7 65.0531 9.94C64.9171 10.076 64.7571 10.236 64.5731 10.42C64.3971 10.604 64.2291 10.796 64.0691 10.996C63.9091 11.196 63.7731 11.388 63.6611 11.572C63.5571 11.756 63.5051 11.916 63.5051 12.052H67.3331V13H62.2931C62.2851 12.952 62.2811 12.904 62.2811 12.856C62.2811 12.808 62.2811 12.764 62.2811 12.724C62.2811 12.348 62.3411 12 62.4611 11.68C62.5891 11.352 62.7531 11.044 62.9531 10.756C63.1531 10.468 63.3771 10.196 63.6251 9.94C63.8731 9.684 64.1171 9.436 64.3571 9.196C64.5571 9.004 64.7451 8.816 64.9211 8.632C65.1051 8.44 65.2651 8.252 65.4011 8.068C65.5451 7.876 65.6571 7.68 65.7371 7.48C65.8251 7.28 65.8691 7.068 65.8691 6.844C65.8691 6.604 65.8291 6.4 65.7491 6.232C65.6771 6.064 65.5771 5.924 65.4491 5.812C65.3211 5.7 65.1691 5.62 64.9931 5.572C64.8251 5.516 64.6451 5.488 64.4531 5.488C64.2211 5.488 64.0091 5.52 63.8171 5.584C63.6251 5.648 63.4531 5.724 63.3011 5.812C63.1491 5.892 63.0211 5.98 62.9171 6.076C62.8131 6.164 62.7331 6.232 62.6771 6.28L62.1251 5.488C62.1971 5.408 62.3051 5.312 62.4491 5.2C62.5931 5.08 62.7651 4.968 62.9651 4.864C63.1651 4.76 63.3891 4.672 63.6371 4.6C63.8851 4.528 64.1531 4.492 64.4411 4.492C65.3131 4.492 65.9651 4.696 66.3971 5.104C66.8371 5.504 67.0571 6.072 67.0571 6.808ZM68.5386 8.884H71.5026V9.928H68.5386V8.884ZM74.5245 12.184C75.2365 12.184 75.7445 12.044 76.0485 11.764C76.3605 11.484 76.5165 11.108 76.5165 10.636C76.5165 10.332 76.4525 10.076 76.3245 9.868C76.1965 9.66 76.0285 9.496 75.8205 9.376C75.6125 9.248 75.3685 9.16 75.0885 9.112C74.8165 9.056 74.5365 9.028 74.2485 9.028H73.9605V8.116H74.3565C74.5565 8.116 74.7605 8.096 74.9685 8.056C75.1845 8.016 75.3805 7.944 75.5565 7.84C75.7325 7.736 75.8765 7.596 75.9885 7.42C76.1005 7.236 76.1565 7.008 76.1565 6.736C76.1565 6.512 76.1165 6.32 76.0365 6.16C75.9565 6 75.8485 5.868 75.7125 5.764C75.5845 5.66 75.4325 5.588 75.2565 5.548C75.0885 5.5 74.9085 5.476 74.7165 5.476C74.3325 5.476 74.0045 5.532 73.7325 5.644C73.4685 5.756 73.2445 5.872 73.0605 5.992L72.6285 5.14C72.7245 5.076 72.8445 5.008 72.9885 4.936C73.1405 4.856 73.3085 4.784 73.4925 4.72C73.6765 4.656 73.8725 4.604 74.0805 4.564C74.2965 4.516 74.5205 4.492 74.7525 4.492C75.1925 4.492 75.5725 4.548 75.8925 4.66C76.2125 4.764 76.4765 4.916 76.6845 5.116C76.8925 5.308 77.0485 5.54 77.1525 5.812C77.2565 6.076 77.3085 6.364 77.3085 6.676C77.3085 7.108 77.1845 7.48 76.9365 7.792C76.6885 8.096 76.3885 8.328 76.0365 8.488C76.2525 8.552 76.4605 8.644 76.6605 8.764C76.8605 8.884 77.0325 9.036 77.1765 9.22C77.3285 9.404 77.4485 9.616 77.5365 9.856C77.6325 10.096 77.6805 10.364 77.6805 10.66C77.6805 11.02 77.6165 11.356 77.4885 11.668C77.3685 11.972 77.1765 12.236 76.9125 12.46C76.6565 12.684 76.3325 12.86 75.9405 12.988C75.5485 13.116 75.0845 13.18 74.5485 13.18C74.3405 13.18 74.1245 13.164 73.9005 13.132C73.6845 13.1 73.4805 13.06 73.2885 13.012C73.0965 12.964 72.9285 12.916 72.7845 12.868C72.6405 12.82 72.5365 12.78 72.4725 12.748L72.6885 11.776C72.8245 11.84 73.0485 11.924 73.3605 12.028C73.6805 12.132 74.0685 12.184 74.5245 12.184ZM84.5979 8.008C84.5979 9.656 84.1859 10.904 83.3619 11.752C82.5459 12.592 81.3299 13.016 79.7139 13.024L79.6779 12.088C80.1819 12.088 80.6339 12.04 81.0339 11.944C81.4419 11.848 81.7979 11.696 82.1019 11.488C82.4059 11.272 82.6579 10.996 82.8579 10.66C83.0659 10.324 83.2179 9.912 83.3139 9.424C83.1059 9.52 82.8699 9.6 82.6059 9.664C82.3419 9.72 82.0699 9.748 81.7899 9.748C81.3179 9.748 80.9179 9.68 80.5899 9.544C80.2619 9.4 79.9939 9.212 79.7859 8.98C79.5779 8.74 79.4259 8.468 79.3299 8.164C79.2419 7.852 79.1979 7.528 79.1979 7.192C79.1979 6.896 79.2499 6.588 79.3539 6.268C79.4579 5.948 79.6139 5.656 79.8219 5.392C80.0379 5.128 80.3099 4.912 80.6379 4.744C80.9659 4.576 81.3539 4.492 81.8019 4.492C82.2579 4.492 82.6579 4.572 83.0019 4.732C83.3539 4.892 83.6459 5.124 83.8779 5.428C84.1179 5.732 84.2979 6.104 84.4179 6.544C84.5379 6.976 84.5979 7.464 84.5979 8.008ZM81.9099 8.836C82.1899 8.836 82.4539 8.812 82.7019 8.764C82.9499 8.708 83.1899 8.628 83.4219 8.524C83.4299 8.436 83.4339 8.352 83.4339 8.272C83.4339 8.184 83.4339 8.096 83.4339 8.008C83.4339 7.664 83.4099 7.336 83.3619 7.024C83.3139 6.704 83.2259 6.428 83.0979 6.196C82.9779 5.956 82.8139 5.768 82.6059 5.632C82.3979 5.488 82.1339 5.416 81.8139 5.416C81.5499 5.416 81.3259 5.472 81.1419 5.584C80.9579 5.696 80.8059 5.84 80.6859 6.016C80.5659 6.184 80.4779 6.372 80.4219 6.58C80.3739 6.78 80.3499 6.976 80.3499 7.168C80.3499 7.712 80.4779 8.128 80.7339 8.416C80.9979 8.696 81.3899 8.836 81.9099 8.836ZM85.9594 8.836C85.9594 7.444 86.2034 6.372 86.6914 5.62C87.1874 4.868 87.8714 4.492 88.7434 4.492C89.6154 4.492 90.2954 4.868 90.7834 5.62C91.2794 6.372 91.5274 7.444 91.5274 8.836C91.5274 10.228 91.2794 11.3 90.7834 12.052C90.2954 12.804 89.6154 13.18 88.7434 13.18C87.8714 13.18 87.1874 12.804 86.6914 12.052C86.2034 11.3 85.9594 10.228 85.9594 8.836ZM90.3514 8.836C90.3514 8.38 90.3234 7.948 90.2674 7.54C90.2194 7.132 90.1314 6.776 90.0034 6.472C89.8834 6.168 89.7194 5.928 89.5114 5.752C89.3034 5.568 89.0474 5.476 88.7434 5.476C88.4394 5.476 88.1834 5.568 87.9754 5.752C87.7674 5.928 87.5994 6.168 87.4714 6.472C87.3514 6.776 87.2634 7.132 87.2074 7.54C87.1594 7.948 87.1354 8.38 87.1354 8.836C87.1354 9.292 87.1594 9.724 87.2074 10.132C87.2634 10.54 87.3514 10.896 87.4714 11.2C87.5994 11.504 87.7674 11.748 87.9754 11.932C88.1834 12.108 88.4394 12.196 88.7434 12.196C89.0474 12.196 89.3034 12.108 89.5114 11.932C89.7194 11.748 89.8834 11.504 90.0034 11.2C90.1314 10.896 90.2194 10.54 90.2674 10.132C90.3234 9.724 90.3514 9.292 90.3514 8.836ZM94.8448 12.184C95.5568 12.184 96.0648 12.044 96.3688 11.764C96.6808 11.484 96.8368 11.108 96.8368 10.636C96.8368 10.332 96.7728 10.076 96.6448 9.868C96.5168 9.66 96.3488 9.496 96.1408 9.376C95.9328 9.248 95.6888 9.16 95.4088 9.112C95.1368 9.056 94.8568 9.028 94.5688 9.028H94.2808V8.116H94.6768C94.8768 8.116 95.0808 8.096 95.2888 8.056C95.5048 8.016 95.7008 7.944 95.8768 7.84C96.0528 7.736 96.1968 7.596 96.3088 7.42C96.4208 7.236 96.4768 7.008 96.4768 6.736C96.4768 6.512 96.4368 6.32 96.3568 6.16C96.2768 6 96.1688 5.868 96.0328 5.764C95.9048 5.66 95.7528 5.588 95.5768 5.548C95.4088 5.5 95.2288 5.476 95.0368 5.476C94.6528 5.476 94.3248 5.532 94.0528 5.644C93.7888 5.756 93.5648 5.872 93.3808 5.992L92.9488 5.14C93.0448 5.076 93.1648 5.008 93.3088 4.936C93.4608 4.856 93.6288 4.784 93.8128 4.72C93.9968 4.656 94.1928 4.604 94.4008 4.564C94.6168 4.516 94.8408 4.492 95.0728 4.492C95.5128 4.492 95.8928 4.548 96.2128 4.66C96.5328 4.764 96.7968 4.916 97.0048 5.116C97.2128 5.308 97.3688 5.54 97.4728 5.812C97.5768 6.076 97.6288 6.364 97.6288 6.676C97.6288 7.108 97.5048 7.48 97.2568 7.792C97.0088 8.096 96.7088 8.328 96.3568 8.488C96.5728 8.552 96.7808 8.644 96.9808 8.764C97.1808 8.884 97.3528 9.036 97.4968 9.22C97.6488 9.404 97.7688 9.616 97.8568 9.856C97.9528 10.096 98.0008 10.364 98.0008 10.66C98.0008 11.02 97.9368 11.356 97.8088 11.668C97.6888 11.972 97.4968 12.236 97.2328 12.46C96.9768 12.684 96.6528 12.86 96.2608 12.988C95.8688 13.116 95.4048 13.18 94.8688 13.18C94.6608 13.18 94.4448 13.164 94.2208 13.132C94.0048 13.1 93.8008 13.06 93.6088 13.012C93.4168 12.964 93.2488 12.916 93.1048 12.868C92.9608 12.82 92.8568 12.78 92.7928 12.748L93.0088 11.776C93.1448 11.84 93.3688 11.924 93.6808 12.028C94.0008 12.132 94.3888 12.184 94.8448 12.184Z" fill="#424B5A"/>
<path fill-rule="evenodd" clip-rule="evenodd" d="M4.41333 7.19333C5.37333 9.08 6.92 10.62 8.80667 11.5867L10.2733 10.12C10.4533 9.94 10.72 9.88 10.9533 9.96C11.7 10.2067 12.5067 10.34 13.3333 10.34C13.7 10.34 14 10.64 14 11.0067V13.3333C14 13.7 13.7 14 13.3333 14C7.07333 14 2 8.92667 2 2.66667C2 2.3 2.3 2 2.66667 2H5C5.36667 2 5.66667 2.3 5.66667 2.66667C5.66667 3.5 5.8 4.3 6.04667 5.04667C6.12 5.28 6.06667 5.54 5.88 5.72667L4.41333 7.19333V7.19333Z" fill="#C2D1D9"/>
<mask id="mask0_372_639" style="mask-type:alpha" maskUnits="userSpaceOnUse" x="2" y="2" width="12" height="12">
<path fill-rule="evenodd" clip-rule="evenodd" d="M4.41333 7.19333C5.37333 9.08 6.92 10.62 8.80667 11.5867L10.2733 10.12C10.4533 9.94 10.72 9.88 10.9533 9.96C11.7 10.2067 12.5067 10.34 13.3333 10.34C13.7 10.34 14 10.64 14 11.0067V13.3333C14 13.7 13.7 14 13.3333 14C7.07333 14 2 8.92667 2 2.66667C2 2.3 2.3 2 2.66667 2H5C5.36667 2 5.66667 2.3 5.66667 2.66667C5.66667 3.5 5.8 4.3 6.04667 5.04667C6.12 5.28 6.06667 5.54 5.88 5.72667L4.41333 7.19333V7.19333Z" fill="white"/>
</mask>
<g mask="url(#mask0_372_639)">
<rect width="16" height="16" fill="#424B5A"/>
</g>
</g>
<defs>
<clipPath id="clip0_372_639">
<rect width="99" height="16" fill="white"/>
</clipPath>
</defs>
</svg>
