<svg width="20" height="21" viewBox="0 0 20 21" fill="none" xmlns="http://www.w3.org/2000/svg">
<path fill-rule="evenodd" clip-rule="evenodd" d="M15.3613 6.29402L15.3305 6.27318C14.6922 5.65852 13.9408 5.36682 13.0761 5.40849L13.0452 5.34598L13.0658 5.33556C13.8481 5.15845 14.3114 4.97093 14.4555 4.76257C14.4966 4.59588 14.4452 4.50212 14.2702 4.48128C13.879 4.53337 13.5084 4.61672 13.1893 4.75215C13.6011 4.48128 13.7555 4.29376 13.6628 4.2C13.2614 4.21041 12.8187 4.41878 12.3658 4.8355C12.5305 4.54379 12.6025 4.3771 12.5614 4.35627C12.3349 4.50212 12.1496 4.66881 11.9849 4.84591C11.6349 5.2418 11.357 5.60643 11.1408 5.93981L11.1305 5.96064C10.5849 6.86701 10.1938 7.77338 9.96729 8.70058L9.88494 8.77351L9.86435 8.78393C9.53494 8.3672 9.13347 8.01299 8.65995 7.73171C8.10407 7.35666 7.44526 7.01286 6.6835 6.66907C5.85998 6.23151 5.01588 5.8773 4.17177 5.59601C4.16147 6.56489 4.635 7.3254 5.55116 7.88798V7.89839C5.23205 7.89839 4.91294 7.95048 4.60412 8.04425C4.66588 8.9402 5.29381 9.55486 6.47762 9.88824L6.46733 9.90907C6.0041 9.87782 5.62322 10.0445 5.3247 10.3883C5.71587 11.1592 6.40557 11.5239 7.40408 11.503C7.2085 11.6072 7.05409 11.7114 6.95115 11.8364C6.76586 12.0343 6.70409 12.2635 6.76586 12.524C6.98203 12.9199 7.36291 13.097 7.92908 13.0657L7.95996 13.1074L7.94966 13.1282C6.97174 14.1492 5.78793 14.6076 4.40853 14.5138L4.38794 14.5243C3.54384 14.5138 2.63796 14.1075 1.66003 13.2949C2.63796 14.7222 3.9453 15.7536 5.56146 16.4099C7.40408 17.0246 9.257 17.0767 11.0996 16.5454H11.1305C12.9217 16.0244 14.4349 14.941 15.6907 13.3158C16.2672 12.4719 16.6275 11.6593 16.7716 10.8779C17.7084 10.9092 18.3775 10.6383 18.7995 10.0549L18.7892 10.0341C18.4701 10.1487 17.8628 10.1174 16.9672 9.92991V9.82573C17.9554 9.71113 18.5422 9.38817 18.7275 8.85685C18.0378 9.12772 17.3584 9.13814 16.6893 8.87769C16.5657 7.94007 16.1231 7.07537 15.3613 6.29402Z" fill="#C2D1D9"/>
<mask id="mask0_372_634" style="mask-type:alpha" maskUnits="userSpaceOnUse" x="1" y="4" width="18" height="13">
<path fill-rule="evenodd" clip-rule="evenodd" d="M15.3613 6.29402L15.3305 6.27318C14.6922 5.65852 13.9408 5.36682 13.0761 5.40849L13.0452 5.34598L13.0658 5.33556C13.8481 5.15845 14.3114 4.97093 14.4555 4.76257C14.4966 4.59588 14.4452 4.50212 14.2702 4.48128C13.879 4.53337 13.5084 4.61672 13.1893 4.75215C13.6011 4.48128 13.7555 4.29376 13.6628 4.2C13.2614 4.21041 12.8187 4.41878 12.3658 4.8355C12.5305 4.54379 12.6025 4.3771 12.5614 4.35627C12.3349 4.50212 12.1496 4.66881 11.9849 4.84591C11.6349 5.2418 11.357 5.60643 11.1408 5.93981L11.1305 5.96064C10.5849 6.86701 10.1938 7.77338 9.96729 8.70058L9.88494 8.77351L9.86435 8.78393C9.53494 8.3672 9.13347 8.01299 8.65995 7.73171C8.10407 7.35666 7.44526 7.01286 6.6835 6.66907C5.85998 6.23151 5.01588 5.8773 4.17177 5.59601C4.16147 6.56489 4.635 7.3254 5.55116 7.88798V7.89839C5.23205 7.89839 4.91294 7.95048 4.60412 8.04425C4.66588 8.9402 5.29381 9.55486 6.47762 9.88824L6.46733 9.90907C6.0041 9.87782 5.62322 10.0445 5.3247 10.3883C5.71587 11.1592 6.40557 11.5239 7.40408 11.503C7.2085 11.6072 7.05409 11.7114 6.95115 11.8364C6.76586 12.0343 6.70409 12.2635 6.76586 12.524C6.98203 12.9199 7.36291 13.097 7.92908 13.0657L7.95996 13.1074L7.94966 13.1282C6.97174 14.1492 5.78793 14.6076 4.40853 14.5138L4.38794 14.5243C3.54384 14.5138 2.63796 14.1075 1.66003 13.2949C2.63796 14.7222 3.9453 15.7536 5.56146 16.4099C7.40408 17.0246 9.257 17.0767 11.0996 16.5454H11.1305C12.9217 16.0244 14.4349 14.941 15.6907 13.3158C16.2672 12.4719 16.6275 11.6593 16.7716 10.8779C17.7084 10.9092 18.3775 10.6383 18.7995 10.0549L18.7892 10.0341C18.4701 10.1487 17.8628 10.1174 16.9672 9.92991V9.82573C17.9554 9.71113 18.5422 9.38817 18.7275 8.85685C18.0378 9.12772 17.3584 9.13814 16.6893 8.87769C16.5657 7.94007 16.1231 7.07537 15.3613 6.29402Z" fill="white"/>
</mask>
<g mask="url(#mask0_372_634)">
<rect y="0.839996" width="19.92" height="20.16" fill="#424B5A"/>
</g>
</svg>
