<svg width="14" height="14" viewBox="0 0 14 14" fill="none" xmlns="http://www.w3.org/2000/svg">
<path fill-rule="evenodd" clip-rule="evenodd" d="M7 7.00001C8.61133 7.00001 9.91667 5.69467 9.91667 4.08334C9.91667 2.47201 8.61133 1.16667 7 1.16667C5.38867 1.16667 4.08333 2.47201 4.08333 4.08334C4.08333 5.69467 5.38867 7.00001 7 7.00001ZM7 2.33334C7.967 2.33334 8.75 3.11634 8.75 4.08334C8.75 5.05034 7.967 5.83334 7 5.83334C6.033 5.83334 5.25 5.05034 5.25 4.08334C5.25 3.11634 6.033 2.33334 7 2.33334ZM12.25 12.25C12.25 12.5722 11.9888 12.8333 11.6667 12.8333C11.3445 12.8333 11.0833 12.5722 11.0833 12.25V11.0833C11.0833 10.2316 8.841 9.33334 7 9.33334C5.159 9.33334 2.91667 10.2316 2.91667 11.0833L2.91667 12.25C2.91667 12.5722 2.6555 12.8333 2.33333 12.8333C2.01117 12.8333 1.75 12.5722 1.75 12.25V11.0833C1.75 9.29559 4.56807 8.16667 7 8.16667C9.43193 8.16667 12.25 9.29559 12.25 11.0833V12.25Z" fill="#505D68"/>
<mask id="mask0_583_4932" style="mask-type:alpha" maskUnits="userSpaceOnUse" x="1" y="1" width="12" height="12">
<path fill-rule="evenodd" clip-rule="evenodd" d="M7 7.00001C8.61133 7.00001 9.91667 5.69467 9.91667 4.08334C9.91667 2.47201 8.61133 1.16667 7 1.16667C5.38867 1.16667 4.08333 2.47201 4.08333 4.08334C4.08333 5.69467 5.38867 7.00001 7 7.00001ZM7 2.33334C7.967 2.33334 8.75 3.11634 8.75 4.08334C8.75 5.05034 7.967 5.83334 7 5.83334C6.033 5.83334 5.25 5.05034 5.25 4.08334C5.25 3.11634 6.033 2.33334 7 2.33334ZM12.25 12.25C12.25 12.5722 11.9888 12.8333 11.6667 12.8333C11.3445 12.8333 11.0833 12.5722 11.0833 12.25V11.0833C11.0833 10.2316 8.841 9.33334 7 9.33334C5.159 9.33334 2.91667 10.2316 2.91667 11.0833L2.91667 12.25C2.91667 12.5722 2.6555 12.8333 2.33333 12.8333C2.01117 12.8333 1.75 12.5722 1.75 12.25V11.0833C1.75 9.29559 4.56807 8.16667 7 8.16667C9.43193 8.16667 12.25 9.29559 12.25 11.0833V12.25Z" fill="white"/>
</mask>
<g mask="url(#mask0_583_4932)">
<rect width="14" height="14" fill="#505D68"/>
</g>
</svg>
